# Blender v2.83.0 OBJ File: ''
# www.blender.org
o TranslateArrow
v 0.000000 2.100000 -0.100000
v 0.038268 0.100000 -0.092388
v 0.000000 0.100000 -0.100000
v 0.038268 2.100000 -0.092388
v 0.070711 0.100000 -0.070711
v 0.070711 2.100000 -0.070711
v 0.092388 0.100000 -0.038268
v 0.092388 2.100000 -0.038268
v 0.100000 0.100000 0.000000
v 0.100000 2.100000 0.000000
v 0.092388 0.100000 0.038268
v 0.092388 2.100000 0.038268
v 0.070711 0.100000 0.070711
v 0.070711 2.100000 0.070711
v 0.038268 0.100000 0.092388
v 0.038268 2.100000 0.092388
v 0.000000 0.100000 0.100000
v 0.000000 2.100000 0.100000
v -0.038268 0.100000 0.092388
v -0.038268 2.100000 0.092388
v -0.070711 0.100000 0.070711
v -0.070711 2.100000 0.070711
v -0.092388 0.100000 0.038268
v -0.092388 2.100000 0.038268
v -0.100000 0.100000 0.000000
v -0.100000 2.100000 0.000000
v -0.092388 0.100000 -0.038268
v -0.092388 2.100000 -0.038268
v -0.070711 0.100000 -0.070711
v 0.252463 2.100000 0.104574
v 0.193227 2.100000 0.193227
v -0.070711 2.100000 -0.070711
v -0.038268 0.100000 -0.092388
v -0.038268 2.100000 -0.092388
v -0.193227 2.100000 -0.193227
v -0.252463 2.100000 -0.104574
v -0.252463 2.100000 0.104574
v 0.000000 2.100000 -0.273264
v 0.273264 2.100000 0.000000
v -0.104574 2.100000 0.252463
v 0.193227 2.100000 -0.193227
v 0.104574 2.100000 0.252463
v -0.273264 2.100000 0.000000
v -0.193227 2.100000 0.193227
v -0.104574 2.100000 -0.252463
v 0.252463 2.100000 -0.104574
v 0.000000 2.100000 0.273264
v 0.104574 2.100000 -0.252463
v 0.015828 2.499795 0.006556
v 0.012114 2.499795 0.012114
v -0.012114 2.499795 -0.012113
v -0.015828 2.499795 -0.006556
v -0.015828 2.499795 0.006556
v 0.000000 2.499795 -0.017131
v 0.017132 2.499795 0.000000
v -0.006556 2.499795 0.015828
v 0.012114 2.499795 -0.012113
v 0.006556 2.499795 0.015828
v -0.017132 2.499795 0.000000
v -0.012114 2.499795 0.012114
v -0.006556 2.499795 -0.015827
v 0.015828 2.499795 -0.006556
v 0.000000 2.499795 0.017132
v 0.006556 2.499795 -0.015827
vt 0.125000 1.000000
vt 0.187500 0.500000
vt 0.187500 1.000000
vt 0.375000 1.000000
vt 0.437500 0.500000
vt 0.437500 1.000000
vt 0.250000 1.000000
vt 0.312500 0.500000
vt 0.312500 1.000000
vt 0.500000 0.500000
vt 0.500000 1.000000
vt 0.250000 0.500000
vt 0.062500 1.000000
vt 0.125000 0.500000
vt 0.562500 0.500000
vt 0.562500 1.000000
vt 0.000000 1.000000
vt 0.062500 0.500000
vt 0.687500 1.000000
vt 0.750000 0.500000
vt 0.750000 1.000000
vt 0.812500 1.000000
vt 0.875000 0.500000
vt 0.875000 1.000000
vt 0.937500 1.000000
vt 1.000000 0.500000
vt 1.000000 1.000000
vt 0.812500 0.500000
vt 0.625000 1.000000
vt 0.687500 0.500000
vt 0.937500 0.500000
vt 0.562500 1.000000
vt 0.625000 0.500000
vt 0.187500 1.000000
vt 0.125000 1.000000
vt 1.000000 1.000000
vt 0.687500 1.000000
vt 0.625000 1.000000
vt 0.000000 1.000000
vt 0.500000 1.000000
vt 0.937500 1.000000
vt 0.437500 1.000000
vt 0.375000 1.000000
vt 0.658156 0.471731
vt 0.841844 0.028269
vt 0.528269 0.341844
vt 0.750000 1.000000
vt 0.250000 1.000000
vt 0.062500 1.000000
vt 0.812500 1.000000
vt 0.312500 1.000000
vt 0.750000 0.490000
vt 0.841844 0.471731
vt 0.919706 0.419706
vt 0.971731 0.341844
vt 0.990000 0.250000
vt 0.971731 0.158156
vt 0.919706 0.080294
vt 0.750000 0.010000
vt 0.658156 0.028269
vt 0.580294 0.080294
vt 0.528269 0.158156
vt 0.510000 0.250000
vt 0.580294 0.419706
vt 0.375000 0.500000
vt 0.562500 1.000000
vt 0.312500 1.000000
vt 0.125000 1.000000
vt 0.750000 1.000000
vt 0.625000 1.000000
vt 0.062500 1.000000
vt 0.250000 1.000000
vt 0.937500 1.000000
vt 0.687500 1.000000
vt 0.000000 1.000000
vt 0.500000 1.000000
vt 0.187500 1.000000
vt 0.437500 1.000000
vt 0.375000 1.000000
vt 0.875000 1.000000
vt 0.875000 1.000000
vt 0.812500 1.000000
vt 0.000000 0.500000
vt 1.000000 1.000000
vn -0.7071 0.0000 -0.7071
vn -0.9239 0.0000 -0.3827
vn -0.7071 -0.0000 0.7071
vn -0.3827 -0.0000 0.9239
vn -1.0000 0.0000 0.0000
vn -0.9239 -0.0000 0.3827
vn -0.0000 -0.0000 1.0000
vn -0.3827 0.0000 -0.9239
vn 0.3827 -0.0000 0.9239
vn -0.0000 0.0000 -1.0000
vn 0.9239 -0.0000 0.3827
vn 1.0000 -0.0000 0.0000
vn 0.9239 0.0000 -0.3827
vn 0.7071 0.0000 -0.7071
vn 0.3827 0.0000 -0.9239
vn 0.7071 -0.0000 0.7071
vn 0.0000 -1.0000 0.0000
vn 0.5954 0.5394 0.5954
vn 0.3222 0.5394 0.7779
vn -0.5954 0.5394 0.5954
vn -0.7779 0.5394 0.3222
vn -0.7779 0.5394 -0.3222
vn -0.5954 0.5395 -0.5954
vn -0.5954 0.5394 -0.5954
vn 0.7779 0.5394 -0.3222
vn 0.8420 0.5394 0.0000
vn 0.7779 0.5394 0.3222
vn 0.5954 0.5395 0.5954
vn -0.3222 0.5394 -0.7779
vn -0.8420 0.5394 0.0000
vn -0.0000 0.5394 -0.8420
vn 0.3222 0.5394 -0.7779
vn 0.0000 0.5394 0.8420
vn -0.3222 0.5394 0.7779
vn 0.5954 0.5394 -0.5954
vn 0.5954 0.5395 -0.5954
vn 0.0000 1.0000 -0.0000
vn 0.0000 1.0000 -0.0002
s 1
f 32/1/1 27/2/2 28/3/2
f 22/4/3 19/5/4 20/6/4
f 26/7/5 23/8/6 24/9/6
f 20/6/4 17/10/7 18/11/7
f 28/3/2 25/12/5 26/7/5
f 34/13/8 29/14/1 32/1/1
f 18/11/7 15/15/9 16/16/9
f 1/17/10 33/18/8 34/13/8
f 12/19/11 9/20/12 10/21/12
f 8/22/13 5/23/14 6/24/14
f 4/25/15 3/26/10 1/27/10
f 10/21/12 7/28/13 8/22/13
f 14/29/16 11/30/11 12/19/11
f 6/24/14 2/31/15 4/25/15
f 14/29/17 42/32/17 16/16/17
f 16/16/9 13/33/16 14/29/16
f 32/1/17 36/34/17 35/35/17
f 38/36/17 4/25/17 1/27/17
f 14/29/17 30/37/17 31/38/17
f 34/13/17 38/39/17 1/17/17
f 16/16/17 47/40/17 18/11/17
f 48/41/17 6/24/17 4/25/17
f 22/4/17 40/42/17 44/43/17
f 33/44/17 15/45/17 27/46/17
f 8/22/17 39/47/17 10/21/17
f 24/9/17 43/48/17 26/7/17
f 32/1/17 45/49/17 34/13/17
f 6/24/17 46/50/17 8/22/17
f 22/4/17 37/51/17 24/9/17
f 43/48/17 28/3/17 26/7/17
f 47/40/17 20/6/17 18/11/17
f 39/47/17 12/19/17 10/21/17
f 33/44/17 3/52/17 2/53/17
f 2/53/17 5/54/17 7/55/17
f 7/55/17 9/56/17 11/57/17
f 11/57/17 13/58/17 15/45/17
f 15/45/17 17/59/17 19/60/17
f 19/60/17 21/61/17 15/45/17
f 21/61/17 23/62/17 15/45/17
f 23/62/17 25/63/17 27/46/17
f 27/46/17 29/64/17 33/44/17
f 33/44/17 2/53/17 7/55/17
f 7/55/17 11/57/17 15/45/17
f 23/62/17 27/46/17 15/45/17
f 24/9/6 21/65/3 22/4/3
f 31/38/18 58/66/19 42/32/19
f 44/43/20 53/67/21 37/51/21
f 36/34/22 51/68/23 35/35/24
f 46/50/25 55/69/26 39/47/26
f 30/37/27 50/70/28 31/38/18
f 35/35/24 61/71/29 45/49/29
f 37/51/21 59/72/30 43/48/30
f 38/36/31 64/73/32 48/41/32
f 30/37/27 55/69/26 49/74/27
f 45/49/29 54/75/31 38/39/31
f 47/40/33 58/66/19 63/76/33
f 36/34/22 59/72/30 52/77/22
f 47/40/33 56/78/34 40/42/34
f 44/43/20 56/78/34 60/79/20
f 41/80/35 64/73/32 57/81/36
f 46/50/25 57/81/36 62/82/25
f 58/66/37 62/82/37 61/71/37
f 32/1/1 29/14/1 27/2/2
f 22/4/3 21/65/3 19/5/4
f 26/7/5 25/12/5 23/8/6
f 20/6/4 19/5/4 17/10/7
f 28/3/2 27/2/2 25/12/5
f 34/13/8 33/18/8 29/14/1
f 18/11/7 17/10/7 15/15/9
f 1/17/10 3/83/10 33/18/8
f 12/19/11 11/30/11 9/20/12
f 8/22/13 7/28/13 5/23/14
f 4/25/15 2/31/15 3/26/10
f 10/21/12 9/20/12 7/28/13
f 14/29/16 13/33/16 11/30/11
f 6/24/14 5/23/14 2/31/15
f 14/29/17 31/38/17 42/32/17
f 16/16/9 15/15/9 13/33/16
f 32/1/17 28/3/17 36/34/17
f 38/36/17 48/41/17 4/25/17
f 14/29/17 12/19/17 30/37/17
f 34/13/17 45/49/17 38/39/17
f 16/16/17 42/32/17 47/40/17
f 48/41/17 41/80/17 6/24/17
f 22/4/17 20/6/17 40/42/17
f 33/44/17 7/55/17 15/45/17
f 8/22/17 46/50/17 39/47/17
f 24/9/17 37/51/17 43/48/17
f 32/1/17 35/35/17 45/49/17
f 6/24/17 41/80/17 46/50/17
f 22/4/17 44/43/17 37/51/17
f 43/48/17 36/34/17 28/3/17
f 47/40/17 40/42/17 20/6/17
f 39/47/17 30/37/17 12/19/17
f 24/9/6 23/8/6 21/65/3
f 31/38/18 50/70/28 58/66/19
f 44/43/20 60/79/20 53/67/21
f 36/34/22 52/77/22 51/68/23
f 46/50/25 62/82/25 55/69/26
f 30/37/27 49/74/27 50/70/28
f 35/35/24 51/68/23 61/71/29
f 37/51/21 53/67/21 59/72/30
f 38/36/31 54/84/31 64/73/32
f 30/37/27 39/47/26 55/69/26
f 45/49/29 61/71/29 54/75/31
f 47/40/33 42/32/19 58/66/19
f 36/34/22 43/48/30 59/72/30
f 47/40/33 63/76/33 56/78/34
f 44/43/20 40/42/34 56/78/34
f 41/80/35 48/41/32 64/73/32
f 46/50/25 41/80/35 57/81/36
f 58/66/37 50/70/37 49/74/37
f 49/74/37 55/69/37 58/66/37
f 55/69/37 62/82/37 58/66/37
f 62/82/37 57/81/37 64/73/37
f 64/73/37 54/75/37 62/82/37
f 54/75/37 61/71/37 62/82/37
f 61/71/37 51/68/37 52/77/37
f 52/77/37 59/72/37 61/71/37
f 59/72/37 53/67/37 61/71/37
f 53/67/37 60/79/37 56/78/37
f 56/78/37 63/76/38 58/66/37
f 53/67/37 56/78/37 61/71/37
f 56/78/37 58/66/37 61/71/37
